<svg xmlns="http://www.w3.org/2000/svg" xmlns:xlink="http://www.w3.org/1999/xlink" width="40" zoomAndPan="magnify" viewBox="0 0 30 33.749998" height="45" preserveAspectRatio="xMidYMid meet" version="1.0"><defs><clipPath id="0954707b85"><path d="M 0.109375 0 L 29 0 L 29 29.035156 L 0.109375 29.035156 Z M 0.109375 0 " clip-rule="nonzero"/></clipPath><clipPath id="5afab5b964"><path d="M 0.109375 0 L 13 0 L 13 12 L 0.109375 12 Z M 0.109375 0 " clip-rule="nonzero"/></clipPath><clipPath id="baeb08ac78"><path d="M 17 16 L 29.890625 16 L 29.890625 28 L 17 28 Z M 17 16 " clip-rule="nonzero"/></clipPath></defs><g clip-path="url(#0954707b85)"><path fill="#1d1d1b" d="M 23.542969 16.796875 C 23.644531 16.773438 23.746094 16.71875 23.824219 16.640625 L 25.335938 15.132812 C 25.417969 15.054688 25.464844 14.957031 25.488281 14.855469 C 25.496094 14.824219 25.5 14.785156 25.5 14.746094 L 28.265625 11.988281 C 29.023438 11.230469 29.023438 10 28.265625 9.242188 L 19.941406 0.9375 C 19.179688 0.179688 17.945312 0.179688 17.1875 0.9375 L 15.632812 2.488281 C 15.457031 2.445312 15.273438 2.488281 15.136719 2.625 L 14.773438 2.992188 C 14.636719 3.125 14.585938 3.3125 14.632812 3.484375 L 13.339844 4.777344 C 13.175781 4.71875 12.992188 4.765625 12.863281 4.894531 L 12 5.753906 C 11.871094 5.882812 11.828125 6.066406 11.882812 6.230469 L 11.4375 6.675781 C 11.269531 6.621094 11.089844 6.664062 10.957031 6.796875 L 10.097656 7.652344 C 9.964844 7.785156 9.921875 7.964844 9.976562 8.128906 L 0.675781 17.410156 C 0.65625 17.429688 0.640625 17.445312 0.621094 17.46875 C 0.597656 17.496094 0.574219 17.523438 0.550781 17.554688 C 0.523438 17.585938 0.496094 17.617188 0.472656 17.648438 C -0.0429688 18.363281 -0.0117188 19.34375 0.5625 20.027344 C 0.566406 20.035156 0.570312 20.042969 0.578125 20.050781 C 0.578125 20.050781 0.578125 20.054688 0.578125 20.054688 L 0.679688 20.152344 L 8.671875 28.128906 L 8.921875 28.375 L 9 28.457031 C 9.683594 29.140625 10.753906 29.210938 11.515625 28.664062 L 11.523438 28.65625 C 11.5625 28.628906 11.601562 28.601562 11.636719 28.570312 C 11.675781 28.535156 11.714844 28.496094 11.753906 28.460938 L 23.433594 16.804688 C 23.476562 16.804688 23.511719 16.800781 23.542969 16.796875 Z M 11.285156 27.847656 L 1.296875 17.882812 L 17.734375 1.484375 C 18.191406 1.03125 18.9375 1.03125 19.390625 1.484375 L 20.652344 2.742188 C 20.375 3.179688 20.433594 3.769531 20.808594 4.144531 L 25.058594 8.382812 C 25.433594 8.757812 26.019531 8.808594 26.457031 8.53125 L 27.714844 9.789062 C 28.179688 10.25 28.179688 10.992188 27.722656 11.449219 Z M 11.285156 27.847656 " fill-opacity="1" fill-rule="nonzero"/></g><g clip-path="url(#5afab5b964)"><path fill="#1d1d1b" d="M 2.179688 11.40625 L 5.867188 7.519531 L 4.539062 7.273438 C 4.621094 5.433594 5.476562 3.652344 6.894531 2.378906 C 8.394531 1.011719 10.542969 0.28125 12.632812 0.433594 L 12.828125 0.449219 L 12.640625 0.390625 C 12.113281 0.226562 11.566406 0.117188 11.019531 0.0585938 C 8.945312 -0.164062 6.824219 0.40625 5.046875 1.664062 C 3.308594 2.902344 2.035156 4.691406 1.460938 6.707031 L 0.128906 6.460938 L 2.167969 11.375 Z M 2.179688 11.40625 " fill-opacity="1" fill-rule="nonzero"/></g><g clip-path="url(#baeb08ac78)"><path fill="#1d1d1b" d="M 27.640625 16.148438 L 24.113281 20.179688 L 25.445312 20.371094 C 25.441406 22.214844 24.65625 24.027344 23.292969 25.355469 C 21.847656 26.785156 19.730469 27.597656 17.632812 27.53125 L 17.441406 27.523438 L 17.628906 27.574219 C 18.164062 27.714844 18.714844 27.804688 19.261719 27.839844 C 21.34375 27.980469 23.4375 27.328125 25.164062 25.996094 C 26.855469 24.691406 28.054688 22.851562 28.542969 20.816406 L 29.886719 21.007812 L 27.652344 16.179688 Z M 27.640625 16.148438 " fill-opacity="1" fill-rule="nonzero"/></g></svg>