<svg xmlns="http://www.w3.org/2000/svg" xmlns:xlink="http://www.w3.org/1999/xlink" width="40" zoomAndPan="magnify" viewBox="0 0 30 33.749998" height="45" preserveAspectRatio="xMidYMid meet" version="1.0"><defs><clipPath id="fbfe4e22b7"><path d="M 5 0 L 15 0 L 15 26.058594 L 5 26.058594 Z M 5 0 " clip-rule="nonzero"/></clipPath><clipPath id="a205018a05"><path d="M 0.109375 6 L 5 6 L 5 20 L 0.109375 20 Z M 0.109375 6 " clip-rule="nonzero"/></clipPath><clipPath id="4f59b13d64"><path d="M 23 1 L 29.890625 1 L 29.890625 25 L 23 25 Z M 23 1 " clip-rule="nonzero"/></clipPath></defs><g clip-path="url(#fbfe4e22b7)"><path fill="#231f20" d="M 5.882812 19.722656 L 14.519531 26.058594 L 14.519531 0 L 5.882812 6.335938 Z M 5.882812 19.722656 " fill-opacity="1" fill-rule="nonzero"/></g><g clip-path="url(#a205018a05)"><path fill="#231f20" d="M 0.125 6.335938 L 4.203125 6.335938 L 4.203125 19.722656 L 0.125 19.722656 Z M 0.125 6.335938 " fill-opacity="1" fill-rule="nonzero"/></g><path fill="#231f20" d="M 16.421875 9.378906 C 16.140625 9.65625 16.140625 10.113281 16.421875 10.390625 C 17.128906 11.097656 17.515625 12.03125 17.515625 13.027344 C 17.515625 14.023438 17.128906 14.960938 16.421875 15.664062 C 16.140625 15.945312 16.140625 16.398438 16.421875 16.679688 C 16.5625 16.820312 16.746094 16.890625 16.929688 16.890625 C 17.113281 16.890625 17.296875 16.820312 17.4375 16.679688 C 18.417969 15.703125 18.957031 14.40625 18.957031 13.027344 C 18.957031 11.648438 18.417969 10.351562 17.4375 9.378906 C 17.15625 9.097656 16.703125 9.097656 16.421875 9.378906 Z M 16.421875 9.378906 " fill-opacity="1" fill-rule="nonzero"/><path fill="#231f20" d="M 21.296875 5.535156 C 21.015625 5.253906 20.558594 5.253906 20.277344 5.535156 C 19.996094 5.8125 19.996094 6.269531 20.277344 6.546875 C 22.015625 8.28125 22.972656 10.582031 22.972656 13.027344 C 22.972656 15.476562 22.015625 17.777344 20.277344 19.507812 C 19.996094 19.789062 19.996094 20.242188 20.277344 20.523438 C 20.417969 20.664062 20.601562 20.730469 20.789062 20.730469 C 20.972656 20.730469 21.15625 20.660156 21.296875 20.523438 C 23.304688 18.519531 24.410156 15.859375 24.410156 13.027344 C 24.410156 10.199219 23.304688 7.539062 21.296875 5.535156 Z M 21.296875 5.535156 " fill-opacity="1" fill-rule="nonzero"/><g clip-path="url(#4f59b13d64)"><path fill="#231f20" d="M 25.152344 1.691406 C 24.871094 1.414062 24.414062 1.414062 24.132812 1.691406 C 23.851562 1.972656 23.851562 2.425781 24.132812 2.707031 C 26.898438 5.464844 28.421875 9.128906 28.421875 13.027344 C 28.421875 16.925781 26.898438 20.59375 24.132812 23.351562 C 23.851562 23.628906 23.851562 24.085938 24.132812 24.363281 C 24.273438 24.503906 24.457031 24.574219 24.640625 24.574219 C 24.824219 24.574219 25.011719 24.503906 25.148438 24.363281 C 28.1875 21.335938 29.863281 17.308594 29.863281 13.027344 C 29.863281 8.746094 28.1875 4.71875 25.152344 1.691406 Z M 25.152344 1.691406 " fill-opacity="1" fill-rule="nonzero"/></g></svg>